# xmcd
#
# Track frame offsets:
#	150
#	8775
#	19615
#	31497
#	41600
#	53757
#	62817
#	72510
#	80285
#	91177
#	102072
#	110085
#	122102
#	133505
#	142157
#	149075
#
# Disc length: 2132 seconds
#
# Revision: 1
# Processed by: cddbd v1.4PL0 Copyright (c) Steve Scherf et al.
# Submitted via: audiograbber 1.81.03
#
DISCID=e3085210
DTITLE=Nicasio_Quintero - ¡Ay_Que_Chulos_Ojos!
DYEAR=2000
DGENRE=Other
TTITLE0=¡Ay_Que_Chulos_Ojos!
TTITLE1=De_Arizona_A_Culiacan
TTITLE2=Corrido_Julio_Cesar_Chavez
TTITLE3=Aunque_Por_Fin_Te_Vayas
TTITLE4=Jacinto_Ramos
TTITLE5=Voy_A_Embarcarme
TTITLE6=Amor_De_Pobre
TTITLE7=Acurrucame
TTITLE8=Riverside_"Aricora"
TTITLE9=La_Hielera
TTITLE10=Luna_Plateada
TTITLE11=Amorcito_Concentido
TTITLE12=Rodolfo_Campa_Roldan
TTITLE13=¡Ay_Que_Chulos_Ojos!
TTITLE14=Valle_Verde
TTITLE15=De_Poder_A_Poder
EXTD=¡ Viva Sonora Cabrones !
EXTT0=
EXTT1=
EXTT2=
EXTT3=
EXTT4=
EXTT5=
EXTT6=
EXTT7=
EXTT8=
EXTT9=
EXTT10=
EXTT11=
EXTT12=
EXTT13=
EXTT14=
EXTT15=
PLAYORDER=
